<svg width="80" height="80" viewBox="0 0 80 80" fill="none" xmlns="http://www.w3.org/2000/svg">
<g clip-path="url(#clip0)">
<path fill-rule="evenodd" clip-rule="evenodd" d="M39.88 0C29.3036 0.00132578 19.1607 4.20338 11.682 11.682C4.20338 19.1607 0.00132578 29.3036 0 39.88C0 57.49 11.5 72.415 27.155 77.8C29.115 78.045 29.845 76.82 29.845 75.84V68.99C18.84 71.44 16.395 63.61 16.395 63.61C14.68 58.96 11.99 57.735 11.99 57.735C8.32 55.29 12.23 55.29 12.23 55.29C16.145 55.535 18.35 59.45 18.35 59.45C22.02 65.565 27.645 63.85 29.85 62.875C30.09 60.185 31.315 58.475 32.295 57.495C23.485 56.515 14.19 53.09 14.19 37.675C14.19 33.275 15.655 29.845 18.35 26.91C18.1 26.175 16.635 22.02 18.84 16.635C18.84 16.635 22.265 15.655 29.845 20.795C33.025 19.815 36.455 19.57 39.88 19.57C43.305 19.57 46.73 20.06 49.91 20.795C57.495 15.66 60.92 16.635 60.92 16.635C63.12 22.02 61.65 26.175 61.405 27.155C64.0995 30.0904 65.5853 33.9355 65.565 37.92C65.565 53.335 56.265 56.515 47.465 57.495C48.93 58.715 50.155 61.16 50.155 64.83V75.84C50.155 76.82 50.885 78.04 52.845 77.8C60.7751 75.1238 67.6634 70.0228 72.5363 63.2182C77.4092 56.4135 80.0201 48.2494 80 39.88C79.755 17.86 61.9 0 39.88 0Z" fill="white"/>
</g>
<defs>
<clipPath id="clip0">
<rect width="80" height="80" fill="white"/>
</clipPath>
</defs>
</svg>
