<svg width="80" height="80" viewBox="0 0 80 80" fill="none" xmlns="http://www.w3.org/2000/svg">
<path d="M68.75 8.75H11.25C9.86719 8.75 8.75 9.86719 8.75 11.25V68.75C8.75 70.1328 9.86719 71.25 11.25 71.25H68.75C70.1328 71.25 71.25 70.1328 71.25 68.75V11.25C71.25 9.86719 70.1328 8.75 68.75 8.75ZM27.2891 62.0078H18.0156V32.1797H27.2891V62.0078ZM22.6562 28.1016C21.5932 28.1016 20.554 27.7863 19.6701 27.1957C18.7861 26.6051 18.0972 25.7656 17.6904 24.7835C17.2836 23.8013 17.1771 22.7206 17.3845 21.678C17.5919 20.6353 18.1038 19.6776 18.8556 18.9259C19.6073 18.1742 20.565 17.6622 21.6076 17.4548C22.6503 17.2474 23.731 17.3539 24.7132 17.7607C25.6953 18.1675 26.5348 18.8565 27.1254 19.7404C27.716 20.6243 28.0312 21.6635 28.0312 22.7266C28.0234 25.6953 25.6172 28.1016 22.6562 28.1016ZM62.0078 62.0078H52.7422V47.5C52.7422 44.0391 52.6797 39.5938 47.9219 39.5938C43.1016 39.5938 42.3594 43.3594 42.3594 47.25V62.0078H33.1016V32.1797H41.9922V36.2578H42.1172C43.3516 33.9141 46.375 31.4375 50.8906 31.4375C60.2812 31.4375 62.0078 37.6172 62.0078 45.6484V62.0078Z" fill="white"/>
</svg>
